<svg width="1073" height="316" viewBox="0 0 1073 316" fill="none" xmlns="http://www.w3.org/2000/svg">
<g clip-path="url(#clip0_2953_1812)">
<rect x="108.999" width="873.61" height="295.396" rx="15" fill="#55F3CC"/>
<path d="M573.508 375.662C573.508 375.662 774.99 325.848 695.241 231.125C615.493 136.403 662.071 -7.83486 773.136 3.09315C884.202 14.0212 886.218 285.115 981.596 99.8467C1076.97 -85.4216 1203.4 47.4661 1166.32 158.971L1170.38 347.644L812.783 415.404L573.508 375.662Z" fill="#000517"/>
<path d="M27.68 241.004C67.3205 258.178 101.381 263.692 128.915 257.393C149.964 252.575 166.119 241.053 176.935 223.143C194.324 194.351 195.414 150.261 179.47 120.595C159.813 84.0182 166.118 56.3189 171.626 43.06C176.889 30.3975 185.648 20.246 196.959 13.7088C206.335 8.28987 217.123 5.45207 229.022 5.27283C250.67 4.94814 274.159 13.6728 295.166 29.832C318.939 48.1177 338.977 75.4063 353.113 108.749C370.203 149.054 405.714 154.033 420.19 154.302C452.594 154.903 483.944 136.776 496.426 110.217C505.732 90.4099 504.242 66.5617 491.993 39.3342C431.722 -94.6675 319.955 -117.018 318.835 -117.226L95.5633 -190.16L-28.3301 -63.2799L-22.4626 209.245L27.68 241.004Z" fill="#000517"/>
<path fill-rule="evenodd" clip-rule="evenodd" d="M1064.38 44.2095C1045.85 53.1039 1023.84 74.239 1002.03 116.603C989.51 140.921 977.577 159.67 965.69 172.692C953.731 185.791 940.091 194.937 924.755 195.404C909.259 195.877 896.759 187.35 887.352 177.52C878.177 167.932 870.267 155.374 863.414 143.397C858.474 134.762 853.947 126.29 849.522 118.008C840.483 101.09 831.867 84.965 821.013 69.8704C805.877 48.8194 790.209 35.8768 771.009 33.9877C724.69 29.4303 696.043 56.6959 685.126 89.3456C674.064 122.43 678.63 168.72 712.048 208.412C724.047 222.664 732.932 238.589 736.581 256.511C740.406 275.3 737.809 293.043 731.342 308.203C723.221 327.24 709.093 342.059 694.284 353.516L1119.54 360.818L1249.9 246.228L1191.16 182.899C1204.12 143.921 1141.36 63.6519 1112.76 46.0057C1099.2 37.6378 1082.6 35.4576 1064.38 44.2095ZM569.055 345.245L569.118 345.229C569.187 345.212 569.302 345.183 569.462 345.142C569.783 345.059 570.283 344.93 570.948 344.752C572.28 344.398 574.268 343.854 576.799 343.123C581.866 341.658 589.067 339.453 597.477 336.521C614.491 330.59 635.635 321.968 653.981 310.936C655.409 377.245 684.774 287.606 688.388 279.133C689.595 276.303 689.655 274.613 689.234 272.547C688.637 269.614 686.374 263.262 678.436 253.834C632.105 198.803 620.085 125.613 640.141 65.6297C660.343 5.212 710.518 -34.177 775.264 -27.8065C811.598 -24.2315 837.831 0.810521 857.29 27.8735C870.534 46.2927 882.57 68.7626 892.48 87.2633C896.359 94.5059 899.912 101.14 903.085 106.685C909.387 117.698 914.387 125.065 918.667 129.538C920.684 131.645 922.098 132.631 922.939 133.075C923.66 133.455 923.957 133.445 924.051 133.442L924.056 133.442C924.056 133.442 927.091 133.457 933.932 125.963C940.845 118.391 949.839 105.084 961.165 83.0848C987.044 32.8152 1016.6 1.08563 1047.45 -13.7257C1078.59 -28.6796 1109.17 -25.4066 1134.5 -9.77309C1183.42 20.4111 1258.01 89.0468 1234.63 161.218L1130.61 395.034L535.624 422.964L554.813 348.766L569.044 345.248L569.047 345.247L569.051 345.246L569.055 345.245Z" fill="#8250CC"/>
<path d="M11.141 300.83L27.6781 241.004C67.3187 258.177 101.379 263.691 128.913 257.392C149.962 252.575 166.117 241.052 176.933 223.143C194.322 194.35 195.413 150.26 179.468 120.594C159.811 84.0174 166.116 56.318 171.625 43.0591C176.887 30.3966 185.647 20.2451 196.957 13.708C206.333 8.289 217.121 5.45121 229.02 5.27197C250.668 4.94728 274.157 13.6719 295.165 29.8312C318.937 48.1168 338.975 75.4055 353.111 108.748C370.201 149.053 405.713 154.032 420.188 154.301C452.592 154.902 483.942 136.775 496.424 110.216C505.73 90.4091 504.241 66.5608 491.991 39.3334C431.72 -94.6684 319.954 -117.019 318.833 -117.227L326.589 -179.751C328.011 -179.486 361.897 -172.929 404.234 -146.695C429.01 -131.345 451.823 -112.307 472.044 -90.1085C497.42 -62.2526 518.725 -29.369 535.37 7.6335C546.09 31.4634 551.777 55.3161 552.277 78.5351C552.278 78.618 552.28 78.7009 552.282 78.7877C552.732 101.412 548.332 122.739 539.199 142.171C527.966 166.075 510.005 185.814 487.249 199.262C466.313 211.637 442.701 217.941 418.97 217.502C396.698 217.09 375.318 210.566 357.133 198.641C347.122 192.073 338.045 183.873 330.158 174.27C321.777 164.065 314.702 152.231 309.133 139.093C289.513 92.806 258.863 72.5593 236.718 69.0467C224.683 67.1381 218.088 70.3559 216.028 72.0055C216.237 73.7383 217.118 77.8855 220.76 84.6612C233.956 109.213 241 140.067 240.593 171.539C240.389 187.438 238.314 203.041 234.434 217.914C230.317 233.688 224.254 248.269 216.413 261.25C197.967 291.792 170.613 311.964 137.303 319.585C101.319 327.822 58.8716 321.512 11.141 300.83Z" stroke="#8250CC" stroke-width="16" stroke-miterlimit="10"/>
<path d="M557.213 338.094C546.025 362.739 667.763 360.525 691.616 320.381C713.45 311.006 673.298 287.822 660.966 272.336C636.851 242.054 620.44 205.93 613.375 167.466C609.712 147.525 608.593 127.275 610.052 107.276C611.509 87.2998 615.502 67.9596 621.921 49.7859C634.669 13.7033 656.121 -15.6988 683.96 -35.2416C697.993 -45.0915 713.407 -52.2164 729.776 -56.4107C746.225 -60.6286 763.628 -61.8722 781.503 -60.1152C813.801 -56.937 843.414 -39.3878 869.525 -7.95868C889.041 15.5333 903.559 42.6622 916.37 66.5994C921.046 75.3378 925.503 83.6637 929.588 90.6004C933.317 84.9091 938.095 76.8333 943.941 65.475C958.174 37.8303 973.94 14.4444 990.797 -4.02571C1007.73 -22.5745 1025.91 -36.3768 1044.83 -45.0454C1081.48 -61.8325 1120.03 -58.8573 1153.4 -36.6715C1167.98 -26.9793 1180.99 -14.0363 1192.06 1.79509C1202.94 17.3626 1211.49 35.0473 1217.45 54.3704C1230.35 96.1166 1229.92 141.74 1216.26 182.845L1188.12 187.521C1196.08 163.58 1121.27 85.2774 1106.4 75.3932C1097.74 69.6354 1088.16 69.0975 1077.91 73.7866C1066.15 79.1755 1047.82 93.9689 1027.3 133.822C1012.96 161.681 999.453 182.349 986.016 197.008C967.878 216.795 948.53 227.028 928.511 227.427C905.336 227.89 883.874 215.297 864.719 189.998C853.263 174.868 843.743 157.083 833.667 138.253C823.163 118.621 812.298 98.3231 800.478 84.0955C788.076 69.1682 779.184 66.5351 772.822 65.9091C743.943 63.0683 721.531 76.0024 712.872 100.509C703.73 126.381 711.656 158.609 733.549 184.613C773.316 231.843 770.019 278.59 764.519 302.248C757.86 330.877 741.535 356.059 715.992 377.095C700.653 389.728 681.312 401.448 658.511 411.922C622.194 428.607 588.056 437.137 586.619 437.492L557.213 338.094Z" stroke="#8250CC" stroke-width="16" stroke-miterlimit="10"/>
</g>
<g filter="url(#filter0_d_2953_1812)">
<path d="M735.023 41.2877C734.733 32.1513 742.613 24.882 751.696 25.9062L1055.63 60.1735C1064.6 61.1845 1070.65 69.8278 1068.53 78.6L1042.45 186.607C1040.63 194.118 1033.41 199.022 1025.76 197.937L751.191 159.01C743.973 157.987 738.536 151.921 738.304 144.635L735.023 41.2877Z" fill="#55F3CC"/>
</g>
<g filter="url(#filter1_d_2953_1812)">
<path d="M726.508 58.4507C726.508 50.6857 732.434 44.2043 740.168 43.5107L1038.54 16.753C1047.61 15.94 1055.3 23.3241 1054.86 32.4163L1049.26 148.514C1048.89 156.227 1042.72 162.397 1035.01 162.773L742.237 177.039C733.677 177.456 726.507 170.628 726.507 162.057L726.508 58.4507Z" fill="white"/>
</g>
<path fill-rule="evenodd" clip-rule="evenodd" d="M810.66 92.1332C809.627 91.1183 807.951 91.1183 806.918 92.1332C805.884 93.1481 805.884 94.7936 806.918 95.8085L817.762 106.459L806.919 117.107C805.886 118.122 805.886 119.768 806.919 120.783C807.953 121.798 809.628 121.798 810.661 120.783L823.198 108.47C823.262 108.418 823.323 108.363 823.383 108.304C823.851 107.845 824.107 107.255 824.151 106.654C824.21 105.923 823.954 105.171 823.384 104.612C823.32 104.549 823.253 104.489 823.184 104.434L810.66 92.1332Z" fill="#00D19C"/>
<path fill-rule="evenodd" clip-rule="evenodd" d="M806.454 86.455C807.487 85.4401 807.487 83.7946 806.454 82.7797C805.42 81.7648 803.745 81.7648 802.712 82.7797L790.245 95.0236C790.152 95.0935 790.062 95.1703 789.977 95.254C789.133 96.0832 788.978 97.3332 789.514 98.3164C789.635 98.5447 789.793 98.759 789.989 98.9508C790.036 98.997 790.084 99.0412 790.134 99.0833L802.7 111.425C803.734 112.44 805.409 112.44 806.442 111.425C807.476 110.41 807.476 108.765 806.442 107.75L795.607 97.1081L806.454 86.455Z" fill="#00D19C"/>
<path fill-rule="evenodd" clip-rule="evenodd" d="M843.948 98.9848L809.917 65.5618C808.586 64.255 806.429 64.255 805.099 65.5619L771.068 98.9848C769.737 100.292 769.737 102.41 771.068 103.717L805.099 137.14C806.429 138.447 808.586 138.447 809.917 137.14L843.948 103.717C845.278 102.41 845.278 100.292 843.948 98.9848ZM814.736 60.8293C810.744 56.9087 804.272 56.9087 800.28 60.8293L766.249 94.2522C762.257 98.1728 762.257 104.529 766.249 108.45L800.28 141.873C804.272 145.793 810.744 145.793 814.736 141.873L848.766 108.45C852.758 104.529 852.758 98.1728 848.766 94.2522L814.736 60.8293Z" fill="#00D19C"/>
<path d="M897.2 85.9769C898.026 86.8868 898.44 88.0257 898.444 89.3936L898.526 123.762C898.529 125.072 898.081 126.128 897.182 126.928C896.283 127.728 895.268 128.13 894.135 128.132C892.951 128.135 891.921 127.739 891.044 126.943C890.167 126.147 889.727 125.065 889.724 123.697L889.723 123.355C886.232 127.125 881.938 129.016 876.843 129.028C871.49 129.041 867.316 127.199 864.322 123.501C861.328 119.804 859.823 114.735 859.808 108.294L859.763 89.4858C859.76 88.1179 860.156 86.9771 860.951 86.0633C861.747 85.1494 862.814 84.6909 864.152 84.6878C865.439 84.6847 866.495 85.1381 867.321 86.0481C868.147 86.958 868.561 88.097 868.564 89.4648L868.61 108.444C868.619 112.263 869.411 115.225 870.986 117.33C872.561 119.435 874.944 120.484 878.135 120.476C879.576 120.473 881.209 119.899 883.034 118.754C884.858 117.61 886.424 115.925 887.731 113.699C889.038 111.473 889.688 108.821 889.681 105.744L889.642 89.4146C889.639 87.9897 890.009 86.8347 890.753 85.9495C891.498 85.0643 892.564 84.62 893.954 84.6167C895.292 84.6135 896.374 85.0669 897.2 85.9769Z" fill="#000517"/>
<path d="M942.878 74.1394C943.78 74.8782 944.233 75.9315 944.236 77.2994L944.348 123.978C944.351 125.346 943.967 126.416 943.197 127.187C942.427 127.958 941.321 128.346 939.88 128.349C937.204 128.356 935.811 126.991 935.701 124.255C934.109 125.855 932.285 127.071 930.228 127.902C928.171 128.733 926.191 129.151 924.286 129.156C920.477 129.165 917.168 128.204 914.358 126.273C911.548 124.341 909.38 121.639 907.853 118.166C906.327 114.693 905.558 110.705 905.547 106.203C905.537 101.928 906.326 98.1076 907.913 94.7411C909.501 91.3746 911.734 88.7475 914.612 86.8598C917.489 84.9721 920.781 84.0238 924.487 84.015C926.237 84.0108 928.091 84.3911 930.049 85.1559C932.007 85.9206 933.811 87.0135 935.461 88.4344L935.435 77.3204C935.431 75.8955 935.854 74.8259 936.701 74.1114C937.549 73.3969 938.564 73.0383 939.748 73.0355C940.932 73.0327 941.975 73.4006 942.878 74.1394ZM931.518 118.537C933.574 117.222 934.959 115.366 935.674 112.97L935.566 99.8048C934.685 97.584 933.279 95.8348 931.345 94.557C929.412 93.2792 927.339 92.643 925.126 92.6482C921.934 92.6558 919.338 93.9444 917.337 96.514C915.336 99.0835 914.34 102.335 914.349 106.267C914.359 110.485 915.294 113.917 917.153 116.563C919.012 119.208 921.46 120.528 924.497 120.52C927.122 120.514 929.463 119.853 931.518 118.537Z" fill="#000517"/>
<path d="M951.304 89.9897C951.301 88.6788 951.761 87.5521 952.686 86.6095C953.61 85.6668 954.638 85.1942 955.77 85.1915C956.697 85.1893 957.495 85.4581 958.166 85.9979C958.836 86.5378 959.378 87.2632 959.792 88.1741L971.668 114.649L983.418 88.0323C983.879 87.0623 984.469 86.3342 985.188 85.848C985.908 85.3619 986.705 85.1177 987.58 85.1157C988.661 85.1131 989.627 85.4812 990.478 86.2202C991.329 86.9591 991.756 87.927 991.759 89.1239C991.76 89.8648 991.582 90.6347 991.224 91.4334L975.558 126.865C975.199 127.607 974.66 128.235 973.941 128.75C973.222 129.264 972.424 129.523 971.549 129.525C969.851 129.529 968.562 128.705 967.683 127.055L951.617 91.6134C951.409 91.1009 951.305 90.5597 951.304 89.9897Z" fill="#000517"/>
<g filter="url(#filter2_d_2953_1812)">
<path d="M569.294 86.8695L19.0776 104.129C9.68595 104.424 2.87433 113.182 4.90092 122.357L43.0948 295.274C44.7485 302.761 51.7826 307.795 59.403 306.946L590.119 247.805C598.532 246.868 604.503 239.159 603.307 230.779L584.614 99.7436C583.534 92.1752 576.935 86.6298 569.294 86.8695Z" fill="white"/>
</g>
<g filter="url(#filter3_d_2953_1812)">
<path d="M599.01 123.14L61.9568 87.3361C53.2991 86.7589 45.959 93.6259 45.959 102.303L45.9595 257.225C45.9595 265.336 52.4075 271.978 60.5152 272.218L597.568 288.132C606.022 288.382 613.012 281.596 613.012 273.138V138.107C613.012 130.21 606.889 123.665 599.01 123.14Z" fill="#4F4F4F"/>
</g>
<path d="M110.136 146.857C110.491 146.857 110.846 146.959 111.2 147.161C111.555 147.364 111.846 147.643 112.074 147.997L120.016 160.423L127.92 147.959C128.148 147.605 128.44 147.339 128.794 147.161C129.174 146.959 129.554 146.857 129.934 146.857C130.517 146.857 131.011 147.047 131.416 147.427C131.847 147.807 132.062 148.327 132.062 148.985V169.087C132.062 169.721 131.834 170.215 131.378 170.569C130.922 170.899 130.403 171.063 129.82 171.063C129.212 171.063 128.693 170.899 128.262 170.569C127.857 170.215 127.654 169.721 127.654 169.087V156.281L121.992 165.135C121.79 165.49 121.511 165.769 121.156 165.971C120.802 166.149 120.422 166.237 120.016 166.237C119.611 166.237 119.218 166.136 118.838 165.933C118.458 165.705 118.167 165.401 117.964 165.021L112.378 156.319V169.087C112.378 169.721 112.15 170.215 111.694 170.569C111.264 170.899 110.757 171.063 110.174 171.063C109.566 171.063 109.047 170.899 108.616 170.569C108.186 170.215 107.97 169.721 107.97 169.087V149.023C107.97 148.39 108.186 147.871 108.616 147.465C109.047 147.06 109.554 146.857 110.136 146.857ZM153.789 151.721C154.422 151.721 154.942 151.911 155.347 152.291C155.752 152.646 155.955 153.115 155.955 153.697V169.087C155.955 169.67 155.752 170.151 155.347 170.531C154.942 170.886 154.422 171.063 153.789 171.063C153.181 171.063 152.687 170.924 152.307 170.645C151.952 170.341 151.737 169.949 151.661 169.467C150.825 170.126 149.875 170.62 148.811 170.949C147.772 171.279 146.746 171.443 145.733 171.443C143.909 171.443 142.326 171.025 140.983 170.189C139.666 169.353 138.652 168.175 137.943 166.655C137.234 165.135 136.879 163.362 136.879 161.335C136.879 159.385 137.272 157.662 138.057 156.167C138.842 154.647 139.932 153.469 141.325 152.633C142.744 151.772 144.378 151.341 146.227 151.341C147.088 151.341 148 151.506 148.963 151.835C149.951 152.165 150.85 152.633 151.661 153.241C151.762 152.76 151.99 152.393 152.345 152.139C152.725 151.861 153.206 151.721 153.789 151.721ZM146.189 167.605C147.38 167.605 148.469 167.352 149.457 166.845C150.47 166.339 151.192 165.617 151.623 164.679V158.105C151.167 157.193 150.458 156.484 149.495 155.977C148.558 155.445 147.57 155.179 146.531 155.179C144.935 155.179 143.643 155.762 142.655 156.927C141.692 158.067 141.211 159.549 141.211 161.373C141.211 163.248 141.667 164.755 142.579 165.895C143.491 167.035 144.694 167.605 146.189 167.605ZM174.469 151.721C175.178 151.721 175.736 151.911 176.141 152.291C176.546 152.646 176.749 153.089 176.749 153.621C176.749 154.128 176.546 154.571 176.141 154.951C175.736 155.331 175.178 155.521 174.469 155.521H166.147V169.125C166.147 169.733 165.919 170.215 165.463 170.569C165.032 170.899 164.526 171.063 163.943 171.063C163.335 171.063 162.803 170.899 162.347 170.569C161.916 170.215 161.701 169.733 161.701 169.125V153.773C161.701 153.089 161.878 152.583 162.233 152.253C162.613 151.899 163.196 151.721 163.981 151.721H174.469ZM196.465 151.721C197.098 151.721 197.618 151.911 198.023 152.291C198.428 152.646 198.631 153.115 198.631 153.697V169.087C198.631 169.67 198.428 170.151 198.023 170.531C197.618 170.886 197.098 171.063 196.465 171.063C195.857 171.063 195.363 170.924 194.983 170.645C194.628 170.341 194.413 169.949 194.337 169.467C193.501 170.126 192.551 170.62 191.487 170.949C190.448 171.279 189.422 171.443 188.409 171.443C186.585 171.443 185.002 171.025 183.659 170.189C182.342 169.353 181.328 168.175 180.619 166.655C179.91 165.135 179.555 163.362 179.555 161.335C179.555 159.385 179.948 157.662 180.733 156.167C181.518 154.647 182.608 153.469 184.001 152.633C185.42 151.772 187.054 151.341 188.903 151.341C189.764 151.341 190.676 151.506 191.639 151.835C192.627 152.165 193.526 152.633 194.337 153.241C194.438 152.76 194.666 152.393 195.021 152.139C195.401 151.861 195.882 151.721 196.465 151.721ZM188.865 167.605C190.056 167.605 191.145 167.352 192.133 166.845C193.146 166.339 193.868 165.617 194.299 164.679V158.105C193.843 157.193 193.134 156.484 192.171 155.977C191.234 155.445 190.246 155.179 189.207 155.179C187.611 155.179 186.319 155.762 185.331 156.927C184.368 158.067 183.887 159.549 183.887 161.373C183.887 163.248 184.343 164.755 185.255 165.895C186.167 167.035 187.37 167.605 188.865 167.605ZM222.047 165.477C222.047 167.327 221.249 168.783 219.653 169.847C218.082 170.911 215.916 171.443 213.155 171.443C210.774 171.443 208.785 171.013 207.189 170.151C205.593 169.265 204.592 168.061 204.187 166.541C204.136 166.237 204.111 166.022 204.111 165.895C204.111 165.363 204.301 164.945 204.681 164.641C205.086 164.337 205.644 164.185 206.353 164.185C206.834 164.185 207.252 164.337 207.607 164.641C207.987 164.92 208.24 165.3 208.367 165.781C208.544 166.339 209.064 166.782 209.925 167.111C210.786 167.441 211.876 167.605 213.193 167.605C214.586 167.605 215.688 167.39 216.499 166.959C217.31 166.503 217.715 165.883 217.715 165.097C217.715 164.616 217.297 164.211 216.461 163.881C215.625 163.527 214.472 163.286 213.003 163.159C212.471 163.109 212.053 162.919 211.749 162.589C211.445 162.235 211.293 161.779 211.293 161.221C211.293 160.613 211.47 160.145 211.825 159.815C212.18 159.461 212.674 159.283 213.307 159.283C214.498 159.283 215.435 159.119 216.119 158.789C216.803 158.46 217.145 158.017 217.145 157.459C217.145 156.75 216.765 156.193 216.005 155.787C215.27 155.382 214.257 155.179 212.965 155.179C211.8 155.179 210.799 155.331 209.963 155.635C209.152 155.939 208.633 156.345 208.405 156.851C208.202 157.206 207.936 157.497 207.607 157.725C207.303 157.928 206.948 158.029 206.543 158.029C205.808 158.029 205.238 157.89 204.833 157.611C204.453 157.307 204.263 156.889 204.263 156.357C204.263 156.053 204.314 155.762 204.415 155.483C204.896 154.191 205.884 153.178 207.379 152.443C208.899 151.709 210.748 151.341 212.927 151.341C215.587 151.341 217.677 151.848 219.197 152.861C220.717 153.875 221.477 155.268 221.477 157.041C221.477 158.257 221.11 159.245 220.375 160.005C219.666 160.74 218.766 161.107 217.677 161.107C218.893 161.31 219.919 161.779 220.755 162.513C221.616 163.223 222.047 164.211 222.047 165.477ZM242.415 151.721C242.998 151.721 243.505 151.886 243.935 152.215C244.366 152.545 244.581 152.988 244.581 153.545V169.201C244.581 169.784 244.366 170.24 243.935 170.569C243.505 170.899 242.998 171.063 242.415 171.063C241.858 171.063 241.351 170.899 240.895 170.569C240.465 170.24 240.249 169.784 240.249 169.201V158.371L230.103 170.455C229.723 170.861 229.166 171.063 228.431 171.063C227.874 171.063 227.367 170.899 226.911 170.569C226.481 170.24 226.265 169.784 226.265 169.201V153.583C226.265 153.001 226.481 152.545 226.911 152.215C227.367 151.886 227.874 151.721 228.431 151.721C229.014 151.721 229.521 151.886 229.951 152.215C230.382 152.545 230.597 152.988 230.597 153.545V164.451L240.743 152.367C241.098 151.937 241.655 151.721 242.415 151.721ZM265.786 151.721C266.369 151.721 266.888 151.899 267.344 152.253C267.8 152.608 268.028 153.089 268.028 153.697V169.011C268.028 169.645 267.8 170.151 267.344 170.531C266.888 170.886 266.369 171.063 265.786 171.063C265.204 171.063 264.697 170.886 264.266 170.531C263.836 170.177 263.62 169.67 263.62 169.011V163.121H252.98V169.011C252.98 169.67 252.765 170.177 252.334 170.531C251.904 170.886 251.41 171.063 250.852 171.063C250.244 171.063 249.712 170.886 249.256 170.531C248.826 170.151 248.61 169.645 248.61 169.011V153.697C248.61 153.089 248.813 152.608 249.218 152.253C249.649 151.899 250.156 151.721 250.738 151.721C251.346 151.721 251.866 151.899 252.296 152.253C252.752 152.608 252.98 153.089 252.98 153.697V159.435H263.62V153.697C263.62 153.089 263.836 152.608 264.266 152.253C264.697 151.899 265.204 151.721 265.786 151.721ZM123.436 212.997C124.07 213.631 124.386 214.289 124.386 214.973C124.386 215.556 124.184 216.05 123.778 216.455C123.373 216.861 122.892 217.063 122.334 217.063C121.701 217.063 121.118 216.797 120.586 216.265L113.632 209.235L111.884 210.451V215.125C111.884 215.708 111.656 216.177 111.2 216.531C110.77 216.886 110.263 217.063 109.68 217.063C109.098 217.063 108.591 216.899 108.16 216.569C107.755 216.215 107.552 215.733 107.552 215.125V199.659C107.552 199.051 107.768 198.583 108.198 198.253C108.629 197.899 109.136 197.721 109.718 197.721C110.301 197.721 110.808 197.899 111.238 198.253C111.669 198.583 111.884 199.051 111.884 199.659V205.663L114.24 203.459L120.852 198.329C121.41 197.924 121.954 197.721 122.486 197.721C123.018 197.721 123.462 197.899 123.816 198.253C124.196 198.608 124.386 199.039 124.386 199.545C124.386 200.28 124.006 200.951 123.246 201.559L117.052 206.537L123.436 212.997ZM136.003 197.341C138.004 197.341 139.765 197.772 141.285 198.633C142.83 199.469 144.021 200.66 144.857 202.205C145.693 203.725 146.111 205.486 146.111 207.487C146.085 209.463 145.642 211.211 144.781 212.731C143.945 214.226 142.767 215.391 141.247 216.227C139.727 217.038 137.979 217.443 136.003 217.443C134.027 217.443 132.279 217.038 130.759 216.227C129.239 215.391 128.048 214.226 127.187 212.731C126.351 211.211 125.92 209.463 125.895 207.487C125.895 205.486 126.313 203.725 127.149 202.205C128.01 200.66 129.201 199.469 130.721 198.633C132.241 197.772 134.001 197.341 136.003 197.341ZM136.003 213.643C137.7 213.643 139.068 213.073 140.107 211.933C141.145 210.793 141.665 209.311 141.665 207.487C141.665 205.613 141.145 204.093 140.107 202.927C139.068 201.737 137.7 201.141 136.003 201.141C134.305 201.141 132.937 201.737 131.899 202.927C130.86 204.093 130.341 205.613 130.341 207.487C130.341 209.311 130.86 210.793 131.899 211.933C132.937 213.073 134.305 213.643 136.003 213.643ZM159.288 197.341C161.137 197.341 162.771 197.759 164.19 198.595C165.609 199.406 166.698 200.559 167.458 202.053C168.243 203.548 168.636 205.258 168.636 207.183C168.636 209.21 168.256 210.996 167.496 212.541C166.736 214.087 165.659 215.29 164.266 216.151C162.873 217.013 161.264 217.443 159.44 217.443C158.553 217.443 157.603 217.291 156.59 216.987C155.577 216.683 154.665 216.253 153.854 215.695V221.509C153.854 222.092 153.639 222.561 153.208 222.915C152.803 223.27 152.309 223.447 151.726 223.447C151.143 223.447 150.637 223.27 150.206 222.915C149.775 222.586 149.56 222.117 149.56 221.509V199.659C149.56 199.051 149.75 198.583 150.13 198.253C150.535 197.899 151.08 197.721 151.764 197.721C152.904 197.721 153.575 198.165 153.778 199.051C154.589 198.469 155.475 198.038 156.438 197.759C157.401 197.481 158.351 197.341 159.288 197.341ZM159.326 213.605C160.821 213.605 162.024 213.023 162.936 211.857C163.848 210.667 164.304 209.121 164.304 207.221C164.304 205.423 163.81 203.966 162.822 202.851C161.859 201.737 160.58 201.179 158.984 201.179C157.945 201.179 156.945 201.458 155.982 202.015C155.019 202.547 154.31 203.269 153.854 204.181V210.489C154.234 211.452 154.943 212.212 155.982 212.769C157.021 213.327 158.135 213.605 159.326 213.605ZM189.389 197.721C189.971 197.721 190.491 197.899 190.947 198.253C191.403 198.608 191.631 199.089 191.631 199.697V215.011C191.631 215.645 191.403 216.151 190.947 216.531C190.491 216.886 189.971 217.063 189.389 217.063C188.806 217.063 188.299 216.886 187.869 216.531C187.438 216.177 187.223 215.67 187.223 215.011V201.559H177.723V215.011C177.723 215.67 177.507 216.177 177.077 216.531C176.646 216.886 176.152 217.063 175.595 217.063C174.987 217.063 174.455 216.886 173.999 216.531C173.568 216.151 173.353 215.645 173.353 215.011V199.697C173.353 199.089 173.555 198.608 173.961 198.253C174.391 197.899 174.898 197.721 175.481 197.721H189.389ZM204.878 197.341C206.879 197.341 208.64 197.772 210.16 198.633C211.705 199.469 212.896 200.66 213.732 202.205C214.568 203.725 214.986 205.486 214.986 207.487C214.96 209.463 214.517 211.211 213.656 212.731C212.82 214.226 211.642 215.391 210.122 216.227C208.602 217.038 206.854 217.443 204.878 217.443C202.902 217.443 201.154 217.038 199.634 216.227C198.114 215.391 196.923 214.226 196.062 212.731C195.226 211.211 194.795 209.463 194.77 207.487C194.77 205.486 195.188 203.725 196.024 202.205C196.885 200.66 198.076 199.469 199.596 198.633C201.116 197.772 202.876 197.341 204.878 197.341ZM204.878 213.643C206.575 213.643 207.943 213.073 208.982 211.933C210.02 210.793 210.54 209.311 210.54 207.487C210.54 205.613 210.02 204.093 208.982 202.927C207.943 201.737 206.575 201.141 204.878 201.141C203.18 201.141 201.812 201.737 200.774 202.927C199.735 204.093 199.216 205.613 199.216 207.487C199.216 209.311 199.735 210.793 200.774 211.933C201.812 213.073 203.18 213.643 204.878 213.643ZM228.163 197.341C230.012 197.341 231.646 197.759 233.065 198.595C234.484 199.406 235.573 200.559 236.333 202.053C237.118 203.548 237.511 205.258 237.511 207.183C237.511 209.21 237.131 210.996 236.371 212.541C235.611 214.087 234.534 215.29 233.141 216.151C231.748 217.013 230.139 217.443 228.315 217.443C227.428 217.443 226.478 217.291 225.465 216.987C224.452 216.683 223.54 216.253 222.729 215.695V221.509C222.729 222.092 222.514 222.561 222.083 222.915C221.678 223.27 221.184 223.447 220.601 223.447C220.018 223.447 219.512 223.27 219.081 222.915C218.65 222.586 218.435 222.117 218.435 221.509V199.659C218.435 199.051 218.625 198.583 219.005 198.253C219.41 197.899 219.955 197.721 220.639 197.721C221.779 197.721 222.45 198.165 222.653 199.051C223.464 198.469 224.35 198.038 225.313 197.759C226.276 197.481 227.226 197.341 228.163 197.341ZM228.201 213.605C229.696 213.605 230.899 213.023 231.811 211.857C232.723 210.667 233.179 209.121 233.179 207.221C233.179 205.423 232.685 203.966 231.697 202.851C230.734 201.737 229.455 201.179 227.859 201.179C226.82 201.179 225.82 201.458 224.857 202.015C223.894 202.547 223.185 203.269 222.729 204.181V210.489C223.109 211.452 223.818 212.212 224.857 212.769C225.896 213.327 227.01 213.605 228.201 213.605ZM257.77 197.721C258.403 197.721 258.922 197.911 259.328 198.291C259.733 198.646 259.936 199.115 259.936 199.697V215.087C259.936 215.67 259.733 216.151 259.328 216.531C258.922 216.886 258.403 217.063 257.77 217.063C257.162 217.063 256.668 216.924 256.288 216.645C255.933 216.341 255.718 215.949 255.642 215.467C254.806 216.126 253.856 216.62 252.792 216.949C251.753 217.279 250.727 217.443 249.714 217.443C247.89 217.443 246.306 217.025 244.964 216.189C243.646 215.353 242.633 214.175 241.924 212.655C241.214 211.135 240.86 209.362 240.86 207.335C240.86 205.385 241.252 203.662 242.038 202.167C242.823 200.647 243.912 199.469 245.306 198.633C246.724 197.772 248.358 197.341 250.208 197.341C251.069 197.341 251.981 197.506 252.944 197.835C253.932 198.165 254.831 198.633 255.642 199.241C255.743 198.76 255.971 198.393 256.326 198.139C256.706 197.861 257.187 197.721 257.77 197.721ZM250.17 213.605C251.36 213.605 252.45 213.352 253.438 212.845C254.451 212.339 255.173 211.617 255.604 210.679V204.105C255.148 203.193 254.438 202.484 253.476 201.977C252.538 201.445 251.55 201.179 250.512 201.179C248.916 201.179 247.624 201.762 246.636 202.927C245.673 204.067 245.192 205.549 245.192 207.373C245.192 209.248 245.648 210.755 246.56 211.895C247.472 213.035 248.675 213.605 250.17 213.605ZM281.224 197.721C281.933 197.721 282.478 197.911 282.858 198.291C283.263 198.671 283.466 199.127 283.466 199.659C283.466 200.166 283.263 200.609 282.858 200.989C282.478 201.369 281.933 201.559 281.224 201.559H276.208V215.201C276.208 215.784 275.992 216.24 275.562 216.569C275.131 216.899 274.624 217.063 274.042 217.063C273.484 217.063 272.978 216.899 272.522 216.569C272.091 216.24 271.876 215.784 271.876 215.201V201.559H266.784C266.1 201.559 265.568 201.382 265.188 201.027C264.833 200.647 264.656 200.204 264.656 199.697C264.656 199.165 264.846 198.709 265.226 198.329C265.606 197.924 266.125 197.721 266.784 197.721H281.224ZM302.644 197.721C303.226 197.721 303.733 197.886 304.164 198.215C304.594 198.545 304.81 198.988 304.81 199.545V215.201C304.81 215.784 304.594 216.24 304.164 216.569C303.733 216.899 303.226 217.063 302.644 217.063C302.086 217.063 301.58 216.899 301.124 216.569C300.693 216.24 300.478 215.784 300.478 215.201V204.371L290.332 216.455C289.952 216.861 289.394 217.063 288.66 217.063C288.102 217.063 287.596 216.899 287.14 216.569C286.709 216.24 286.494 215.784 286.494 215.201V199.583C286.494 199.001 286.709 198.545 287.14 198.215C287.596 197.886 288.102 197.721 288.66 197.721C289.242 197.721 289.749 197.886 290.18 198.215C290.61 198.545 290.826 198.988 290.826 199.545V210.451L300.972 198.367C301.326 197.937 301.884 197.721 302.644 197.721ZM326.433 211.211C326.433 213.365 325.66 214.885 324.115 215.771C322.57 216.633 320.632 217.063 318.301 217.063H310.283C309.802 217.063 309.384 216.911 309.029 216.607C308.674 216.278 308.497 215.898 308.497 215.467V199.317C308.497 198.861 308.662 198.481 308.991 198.177C309.346 197.873 309.776 197.721 310.283 197.721H317.693C319.644 197.721 321.366 198.114 322.861 198.899C324.356 199.685 325.103 201.078 325.103 203.079C325.103 203.89 324.888 204.675 324.457 205.435C324.052 206.17 323.418 206.601 322.557 206.727C323.697 206.981 324.622 207.525 325.331 208.361C326.066 209.197 326.433 210.147 326.433 211.211ZM318.529 205.473C319.238 205.473 319.783 205.283 320.163 204.903C320.543 204.498 320.733 204.017 320.733 203.459C320.733 202.927 320.53 202.471 320.125 202.091C319.745 201.686 319.188 201.483 318.453 201.483H312.791V205.473H318.529ZM312.791 213.225H319.365C320.277 213.225 320.986 212.997 321.493 212.541C322 212.06 322.253 211.49 322.253 210.831C322.253 210.198 322 209.653 321.493 209.197C320.986 208.716 320.277 208.475 319.365 208.475H312.791V213.225ZM348.058 197.721C348.641 197.721 349.16 197.899 349.616 198.253C350.072 198.608 350.3 199.089 350.3 199.697V215.011C350.3 215.645 350.072 216.151 349.616 216.531C349.16 216.886 348.641 217.063 348.058 217.063C347.475 217.063 346.969 216.886 346.538 216.531C346.107 216.177 345.892 215.67 345.892 215.011V209.121H335.252V215.011C335.252 215.67 335.037 216.177 334.606 216.531C334.175 216.886 333.681 217.063 333.124 217.063C332.516 217.063 331.984 216.886 331.528 216.531C331.097 216.151 330.882 215.645 330.882 215.011V199.697C330.882 199.089 331.085 198.608 331.49 198.253C331.921 197.899 332.427 197.721 333.01 197.721C333.618 197.721 334.137 197.899 334.568 198.253C335.024 198.608 335.252 199.089 335.252 199.697V205.435H345.892V199.697C345.892 199.089 346.107 198.608 346.538 198.253C346.969 197.899 347.475 197.721 348.058 197.721ZM364.522 197.341C366.524 197.341 368.284 197.772 369.804 198.633C371.35 199.469 372.54 200.66 373.376 202.205C374.212 203.725 374.63 205.486 374.63 207.487C374.605 209.463 374.162 211.211 373.3 212.731C372.464 214.226 371.286 215.391 369.766 216.227C368.246 217.038 366.498 217.443 364.522 217.443C362.546 217.443 360.798 217.038 359.278 216.227C357.758 215.391 356.568 214.226 355.706 212.731C354.87 211.211 354.44 209.463 354.414 207.487C354.414 205.486 354.832 203.725 355.668 202.205C356.53 200.66 357.72 199.469 359.24 198.633C360.76 197.772 362.521 197.341 364.522 197.341ZM364.522 213.643C366.22 213.643 367.588 213.073 368.626 211.933C369.665 210.793 370.184 209.311 370.184 207.487C370.184 205.613 369.665 204.093 368.626 202.927C367.588 201.737 366.22 201.141 364.522 201.141C362.825 201.141 361.457 201.737 360.418 202.927C359.38 204.093 358.86 205.613 358.86 207.487C358.86 209.311 359.38 210.793 360.418 211.933C361.457 213.073 362.825 213.643 364.522 213.643ZM391.114 197.721C391.823 197.721 392.38 197.911 392.786 198.291C393.191 198.646 393.394 199.089 393.394 199.621C393.394 200.128 393.191 200.571 392.786 200.951C392.38 201.331 391.823 201.521 391.114 201.521H382.792V215.125C382.792 215.733 382.564 216.215 382.108 216.569C381.677 216.899 381.17 217.063 380.588 217.063C379.98 217.063 379.448 216.899 378.992 216.569C378.561 216.215 378.346 215.733 378.346 215.125V199.773C378.346 199.089 378.523 198.583 378.878 198.253C379.258 197.899 379.84 197.721 380.626 197.721H391.114ZM406.307 197.341C408.309 197.341 410.069 197.772 411.589 198.633C413.135 199.469 414.325 200.66 415.161 202.205C415.997 203.725 416.415 205.486 416.415 207.487C416.39 209.463 415.947 211.211 415.085 212.731C414.249 214.226 413.071 215.391 411.551 216.227C410.031 217.038 408.283 217.443 406.307 217.443C404.331 217.443 402.583 217.038 401.063 216.227C399.543 215.391 398.353 214.226 397.491 212.731C396.655 211.211 396.225 209.463 396.199 207.487C396.199 205.486 396.617 203.725 397.453 202.205C398.315 200.66 399.505 199.469 401.025 198.633C402.545 197.772 404.306 197.341 406.307 197.341ZM406.307 213.643C408.005 213.643 409.373 213.073 410.411 211.933C411.45 210.793 411.969 209.311 411.969 207.487C411.969 205.613 411.45 204.093 410.411 202.927C409.373 201.737 408.005 201.141 406.307 201.141C404.61 201.141 403.242 201.737 402.203 202.927C401.165 204.093 400.645 205.613 400.645 207.487C400.645 209.311 401.165 210.793 402.203 211.933C403.242 213.073 404.61 213.643 406.307 213.643ZM459.266 197.721C459.874 197.721 460.406 197.924 460.862 198.329C461.343 198.735 461.584 199.241 461.584 199.849V215.201C461.584 215.784 461.356 216.24 460.9 216.569C460.469 216.899 459.975 217.063 459.418 217.063C458.835 217.063 458.329 216.899 457.898 216.569C457.467 216.24 457.252 215.784 457.252 215.201V206.575L453.186 212.275C452.933 212.655 452.603 212.947 452.198 213.149C451.818 213.327 451.4 213.415 450.944 213.415C450.513 213.415 450.095 213.327 449.69 213.149C449.285 212.947 448.955 212.655 448.702 212.275L444.636 206.575V215.201C444.636 215.784 444.421 216.24 443.99 216.569C443.559 216.899 443.053 217.063 442.47 217.063C441.913 217.063 441.406 216.899 440.95 216.569C440.519 216.24 440.304 215.784 440.304 215.201V199.849C440.304 199.241 440.532 198.735 440.988 198.329C441.469 197.924 442.014 197.721 442.622 197.721C443.331 197.721 443.889 198.025 444.294 198.633L450.944 208.437L457.594 198.633C457.999 198.025 458.557 197.721 459.266 197.721ZM473.995 213.681C475.616 213.681 476.997 213.238 478.137 212.351C478.694 211.87 479.264 211.629 479.847 211.629C480.379 211.629 480.822 211.819 481.177 212.199C481.557 212.579 481.747 213.023 481.747 213.529C481.747 214.112 481.494 214.657 480.987 215.163C480.151 215.974 479.125 216.569 477.909 216.949C476.718 217.304 475.452 217.469 474.109 217.443C472.133 217.443 470.385 217.038 468.865 216.227C467.345 215.417 466.167 214.289 465.331 212.845C464.495 211.376 464.077 209.704 464.077 207.829C464.077 205.752 464.482 203.928 465.293 202.357C466.104 200.761 467.256 199.533 468.751 198.671C470.246 197.785 471.994 197.341 473.995 197.341C476.984 197.341 479.315 198.241 480.987 200.039C482.659 201.838 483.508 204.232 483.533 207.221C483.533 207.981 483.381 208.551 483.077 208.931C482.773 209.311 482.127 209.501 481.139 209.501H468.485C468.84 210.743 469.511 211.756 470.499 212.541C471.487 213.301 472.652 213.681 473.995 213.681ZM474.033 201.103C472.564 201.103 471.335 201.559 470.347 202.471C469.359 203.383 468.726 204.599 468.447 206.119H479.505C479.353 204.549 478.834 203.32 477.947 202.433C477.06 201.547 475.756 201.103 474.033 201.103ZM498.282 197.341C500.132 197.341 501.766 197.759 503.184 198.595C504.603 199.406 505.692 200.559 506.452 202.053C507.238 203.548 507.63 205.258 507.63 207.183C507.63 209.21 507.25 210.996 506.49 212.541C505.73 214.087 504.654 215.29 503.26 216.151C501.867 217.013 500.258 217.443 498.434 217.443C497.548 217.443 496.598 217.291 495.584 216.987C494.571 216.683 493.659 216.253 492.848 215.695V221.509C492.848 222.092 492.633 222.561 492.202 222.915C491.797 223.27 491.303 223.447 490.72 223.447C490.138 223.447 489.631 223.27 489.2 222.915C488.77 222.586 488.554 222.117 488.554 221.509V199.659C488.554 199.051 488.744 198.583 489.124 198.253C489.53 197.899 490.074 197.721 490.758 197.721C491.898 197.721 492.57 198.165 492.772 199.051C493.583 198.469 494.47 198.038 495.432 197.759C496.395 197.481 497.345 197.341 498.282 197.341ZM498.32 213.605C499.815 213.605 501.018 213.023 501.93 211.857C502.842 210.667 503.298 209.121 503.298 207.221C503.298 205.423 502.804 203.966 501.816 202.851C500.854 201.737 499.574 201.179 497.978 201.179C496.94 201.179 495.939 201.458 494.976 202.015C494.014 202.547 493.304 203.269 492.848 204.181V210.489C493.228 211.452 493.938 212.212 494.976 212.769C496.015 213.327 497.13 213.605 498.32 213.605ZM527.965 197.721C528.522 197.721 529.003 197.899 529.409 198.253C529.839 198.608 530.055 199.115 530.055 199.773V215.087C530.055 215.67 529.852 216.151 529.447 216.531C529.041 216.886 528.522 217.063 527.889 217.063C527.255 217.063 526.736 216.886 526.331 216.531C525.925 216.151 525.723 215.67 525.723 215.087V210.223C524.887 210.857 523.962 211.338 522.949 211.667C521.961 211.997 521.049 212.161 520.213 212.161C517.426 212.161 515.374 211.414 514.057 209.919C512.765 208.425 512.119 206.436 512.119 203.953V199.773C512.119 199.14 512.334 198.646 512.765 198.291C513.195 197.911 513.715 197.721 514.323 197.721C514.88 197.721 515.374 197.899 515.805 198.253C516.235 198.608 516.451 199.115 516.451 199.773V203.991C516.451 206.879 517.857 208.323 520.669 208.323C521.631 208.323 522.607 208.007 523.595 207.373C524.583 206.74 525.292 205.955 525.723 205.017V199.773C525.723 199.14 525.938 198.646 526.369 198.291C526.825 197.911 527.357 197.721 527.965 197.721ZM552.381 197.721C553.014 197.721 553.534 197.911 553.939 198.291C554.344 198.646 554.547 199.115 554.547 199.697V215.087C554.547 215.67 554.344 216.151 553.939 216.531C553.534 216.886 553.014 217.063 552.381 217.063C551.773 217.063 551.279 216.924 550.899 216.645C550.544 216.341 550.329 215.949 550.253 215.467C549.417 216.126 548.467 216.62 547.403 216.949C546.364 217.279 545.338 217.443 544.325 217.443C542.501 217.443 540.918 217.025 539.575 216.189C538.258 215.353 537.244 214.175 536.535 212.655C535.826 211.135 535.471 209.362 535.471 207.335C535.471 205.385 535.864 203.662 536.649 202.167C537.434 200.647 538.524 199.469 539.917 198.633C541.336 197.772 542.97 197.341 544.819 197.341C545.68 197.341 546.592 197.506 547.555 197.835C548.543 198.165 549.442 198.633 550.253 199.241C550.354 198.76 550.582 198.393 550.937 198.139C551.317 197.861 551.798 197.721 552.381 197.721ZM544.781 213.605C545.972 213.605 547.061 213.352 548.049 212.845C549.062 212.339 549.784 211.617 550.215 210.679V204.105C549.759 203.193 549.05 202.484 548.087 201.977C547.15 201.445 546.162 201.179 545.123 201.179C543.527 201.179 542.235 201.762 541.247 202.927C540.284 204.067 539.803 205.549 539.803 207.373C539.803 209.248 540.259 210.755 541.171 211.895C542.083 213.035 543.286 213.605 544.781 213.605Z" fill="white"/>
<defs>
<filter id="filter0_d_2953_1812" x="731.015" y="25.8096" width="341.937" height="180.277" filterUnits="userSpaceOnUse" color-interpolation-filters="sRGB">
<feFlood flood-opacity="0" result="BackgroundImageFix"/>
<feColorMatrix in="SourceAlpha" type="matrix" values="0 0 0 0 0 0 0 0 0 0 0 0 0 0 0 0 0 0 127 0" result="hardAlpha"/>
<feOffset dy="4"/>
<feGaussianBlur stdDeviation="2"/>
<feComposite in2="hardAlpha" operator="out"/>
<feColorMatrix type="matrix" values="0 0 0 0 0 0 0 0 0 0 0 0 0 0 0 0 0 0 0.25 0"/>
<feBlend mode="normal" in2="BackgroundImageFix" result="effect1_dropShadow_2953_1812"/>
<feBlend mode="normal" in="SourceGraphic" in2="effect1_dropShadow_2953_1812" result="shape"/>
</filter>
<filter id="filter1_d_2953_1812" x="722.507" y="16.6914" width="336.375" height="168.366" filterUnits="userSpaceOnUse" color-interpolation-filters="sRGB">
<feFlood flood-opacity="0" result="BackgroundImageFix"/>
<feColorMatrix in="SourceAlpha" type="matrix" values="0 0 0 0 0 0 0 0 0 0 0 0 0 0 0 0 0 0 127 0" result="hardAlpha"/>
<feOffset dy="4"/>
<feGaussianBlur stdDeviation="2"/>
<feComposite in2="hardAlpha" operator="out"/>
<feColorMatrix type="matrix" values="0 0 0 0 0 0 0 0 0 0 0 0 0 0 0 0 0 0 0.25 0"/>
<feBlend mode="normal" in2="BackgroundImageFix" result="effect1_dropShadow_2953_1812"/>
<feBlend mode="normal" in="SourceGraphic" in2="effect1_dropShadow_2953_1812" result="shape"/>
</filter>
<filter id="filter2_d_2953_1812" x="0.542236" y="86.8623" width="606.918" height="228.177" filterUnits="userSpaceOnUse" color-interpolation-filters="sRGB">
<feFlood flood-opacity="0" result="BackgroundImageFix"/>
<feColorMatrix in="SourceAlpha" type="matrix" values="0 0 0 0 0 0 0 0 0 0 0 0 0 0 0 0 0 0 127 0" result="hardAlpha"/>
<feOffset dy="4"/>
<feGaussianBlur stdDeviation="2"/>
<feComposite in2="hardAlpha" operator="out"/>
<feColorMatrix type="matrix" values="0 0 0 0 0 0 0 0 0 0 0 0 0 0 0 0 0 0 0.25 0"/>
<feBlend mode="normal" in2="BackgroundImageFix" result="effect1_dropShadow_2953_1812"/>
<feBlend mode="normal" in="SourceGraphic" in2="effect1_dropShadow_2953_1812" result="shape"/>
</filter>
<filter id="filter3_d_2953_1812" x="41.959" y="87.3018" width="575.053" height="208.837" filterUnits="userSpaceOnUse" color-interpolation-filters="sRGB">
<feFlood flood-opacity="0" result="BackgroundImageFix"/>
<feColorMatrix in="SourceAlpha" type="matrix" values="0 0 0 0 0 0 0 0 0 0 0 0 0 0 0 0 0 0 127 0" result="hardAlpha"/>
<feOffset dy="4"/>
<feGaussianBlur stdDeviation="2"/>
<feComposite in2="hardAlpha" operator="out"/>
<feColorMatrix type="matrix" values="0 0 0 0 0 0 0 0 0 0 0 0 0 0 0 0 0 0 0.25 0"/>
<feBlend mode="normal" in2="BackgroundImageFix" result="effect1_dropShadow_2953_1812"/>
<feBlend mode="normal" in="SourceGraphic" in2="effect1_dropShadow_2953_1812" result="shape"/>
</filter>
<clipPath id="clip0_2953_1812">
<rect x="108.999" width="873.61" height="295.396" rx="15" fill="white"/>
</clipPath>
</defs>
</svg>
