<svg width="214" height="91" viewBox="0 0 214 91" fill="none" xmlns="http://www.w3.org/2000/svg">
<path d="M2.6594 11.4741L67.3746 18.0365L87.2467 90.4698H0L2.6594 11.4741Z" fill="#F3E7E2"/>
<path d="M149.504 13.9692L205.113 26.3811L213.659 90.9998L140.021 90.4697L149.504 13.9692Z" fill="#EAECDF"/>
<path opacity="0.64" d="M148.717 13.9692L158.19 15.9069L168.121 90.4697H142.334L148.717 13.9692Z" fill="#060029" fill-opacity="0.53"/>
<path d="M80.0295 17.9452L154.759 11.5107L155.309 90.5064H65.1094L80.0295 17.9452Z" fill="#E3DFD8"/>
<path d="M109.1 21.6468C112.804 5.76177 136.501 -14.4738 130.118 21.6468" stroke="black" stroke-miterlimit="10"/>
<path d="M194.42 30.3479C188.807 63.6078 175.822 29.6715 175.822 24.1968" stroke="black" stroke-miterlimit="10"/>
<path d="M32.4629 22.7526C32.4629 22.7526 35.1406 -19.9487 56.1774 24.1876" stroke="black" stroke-miterlimit="10"/>
<path opacity="0.64" d="M87.2466 17.3237L82.0287 90.5064H65.1094L80.0295 17.9452L87.2466 17.3237Z" fill="#060029" fill-opacity="0.53"/>
<path opacity="0.64" d="M2.6594 11.4741L17.6529 12.9913L11.6005 90.4698H0L2.6594 11.4741Z" fill="#060029" fill-opacity="0.53"/>
</svg>
