<svg width="287" height="105" viewBox="0 0 287 105" fill="none" xmlns="http://www.w3.org/2000/svg">
<g clip-path="url(#clip0_1745_2540)">
<path d="M7.92 0.910156H92.16L86.4 103.51H0L7.92 0.910156Z" fill="#FFDD86"/>
<path d="M102.609 0L103.809 102.6L193.329 104.64L198.129 0H102.609Z" fill="#FFDD86"/>
<path d="M208.61 0.910156L205.25 103.51H286.37L282.77 0.910156H208.61Z" fill="#FFDD86"/>
<path d="M60.3705 74.8899L42.1805 78.3399L23.8505 74.8899L16.5605 23.8899L67.8006 22.1099L60.3705 74.8899Z" fill="#E1CCB2"/>
<path d="M134.301 24.8799L127.691 19.1599L150.151 10.6099L167.321 16.5099L161.051 25.0399L174.891 33.6899L181.411 75.5199L173.921 77.7199L168.201 65.3899L164.681 77.7199H135.181L133.481 66.9999L127.691 79.9199L118.881 75.0799L124.611 30.1599L134.301 24.8799Z" fill="#CFE299"/>
<path d="M260.84 22.5298L258.4 77.7298L247.4 72.4498L260.84 22.5298Z" fill="#CBC591"/>
<path d="M230.57 17.4902L220.48 64.2902L250.72 77.7302L261.58 18.2202L230.57 17.4902Z" fill="#EEE9BD"/>
<path d="M233.721 19.8902C233.721 19.8902 235.121 4.23018 238.001 17.6702" stroke="black" stroke-miterlimit="10"/>
<path d="M257.629 18.1299C257.629 18.1299 255.359 7.17993 253.439 20.2499" stroke="black" stroke-miterlimit="10"/>
<path d="M240.52 20.2499C240.52 20.2499 242.65 5.0399 244.77 17.8199" stroke="black" stroke-miterlimit="10"/>
<path d="M247.471 20.25C247.471 20.25 249.441 4.04998 251.411 17.98" stroke="black" stroke-miterlimit="10"/>
<path d="M10.6699 87.3101V97.3901L58.4499 95.4701V89.2301L10.6699 87.3101Z" fill="#E8CE89"/>
<path d="M114.609 91.4398V96.4798H162.609V89.2798L114.609 91.4398Z" fill="#E8CE89"/>
<path d="M218.01 90.1899L216.09 97.3899H249.69L251.35 90.1899H218.01Z" fill="#E8CE89"/>
<path d="M66.34 32.46C66.34 32.46 76.27 35.37 76.69 45.26C77.14 55.83 62.5 59.76 62.5 59.76" stroke="black" stroke-miterlimit="10"/>
<path d="M140.769 29.2798L138.609 41.2798" stroke="black" stroke-miterlimit="10"/>
<path d="M153.01 29.2798L157.09 42.7198" stroke="black" stroke-miterlimit="10"/>
<path d="M134.299 24.8799L127.689 19.1599L150.149 10.6099L167.319 16.5099L161.049 25.0399L146.049 28.3199L134.299 24.8799Z" fill="#C3D58F"/>
<path d="M119.621 69.2598L129.941 74.8898L127.691 79.9198L118.881 75.0798L119.621 69.2598Z" fill="#C3D48F"/>
<path d="M172.471 74.5902L180.781 71.4902L181.411 75.5202L173.921 77.7202L172.471 74.5902Z" fill="#C3D48F"/>
<path d="M134.551 73.75L165.481 74.89L164.681 77.72H135.181L134.551 73.75Z" fill="#C3D48F"/>
<path d="M133.481 66.9999L131.891 47.6099" stroke="#C3D48F" stroke-miterlimit="10"/>
<path d="M168.2 65.3901L167.32 49.3901" stroke="#C3D48F" stroke-miterlimit="10"/>
<path d="M40.0898 26.8201L42.1798 78.3401L60.5 74.5L67.5 22L40.0898 26.8201Z" fill="#C8B297"/>
<path d="M16.5605 23.8902L40.0905 26.8202L67.8006 22.1102L40.8105 20.7002L16.5605 23.8902Z" fill="#A08A6E"/>
<path d="M65.6601 37.2998C65.6601 37.2998 81.1401 44.9798 63.0801 55.6698L65.6601 37.2998Z" fill="#FFDD86"/>
</g>
<defs>
<clipPath id="clip0_1745_2540">
<rect width="286.37" height="104.64" fill="white"/>
</clipPath>
</defs>
</svg>
