<svg width="95" height="107" viewBox="0 0 95 107" fill="none" xmlns="http://www.w3.org/2000/svg">
<path d="M67.3109 12L1.97085 12.53C0.640855 12.45 -0.339161 13.75 0.110839 15L31.2708 105.74C31.6208 106.72 32.7108 107.22 33.6808 106.85L87.6508 88.5C88.5909 88.14 89.0709 87.1 88.7309 86.15L68.9409 13.23C68.6909 12.53 68.0508 12.04 67.3109 12Z" fill="#121014"/>
<path d="M72.8504 17.1364L7.08042 6.0264C5.77042 5.8064 4.66044 6.99641 4.97044 8.28641L27.6204 101.876C27.8604 102.886 28.8904 103.496 29.9004 103.226L90.3904 86.1964C91.3604 85.9364 91.9404 84.9564 91.7104 83.9764L74.3304 18.5264C74.1604 17.8064 73.5804 17.2564 72.8504 17.1364Z" fill="#1F1926"/>
<path d="M13.3708 0H53.2707C53.4507 0 53.6208 0.0700024 53.7508 0.190002L66.1908 11.41C66.3308 11.54 66.5308 11.61 66.7208 11.59L78.6708 10.81C79.0308 10.79 79.3508 11.03 79.4208 11.38L94.4307 81.34C94.5207 81.74 94.2508 82.13 93.8508 82.2L30.0207 93.21C29.6307 93.28 29.2608 93.02 29.1908 92.63L12.6708 0.850006C12.5808 0.410006 12.9208 0 13.3708 0Z" fill="#4F5357"/>
<path d="M53.551 0C60 5 63.191 15.57 63.191 15.57C63.481 16.04 64.071 16.25 64.591 16.06C64.591 16.06 75.58 15.6211 79.291 10.78L53.551 0Z" fill="#666D75"/>
<path d="M43.5 50.5L53 61.5L65 34" stroke="white" stroke-miterlimit="10"/>
</svg>
