<svg width="111" height="31" viewBox="0 0 111 31" fill="none" xmlns="http://www.w3.org/2000/svg">
<path d="M46.7655 11.3414C35.8945 7.51388 33.4331 15.5719 42.6632 16.3777C51.3625 17.1372 46.7655 25.6444 36.0996 21.0111" stroke="white" stroke-width="2"/>
<path d="M55.1747 0V10.6769M63.1742 18.332C56.9387 24.6173 55.1064 21.6895 55.1747 18.7349V10.6769M55.1747 10.6769H61.3281M55.1747 10.6769H49.8418" stroke="white" stroke-width="2"/>
<path d="M76.583 11.5999C77.611 12.7081 78.1949 14.6098 78.1906 16.5804C78.1863 18.5695 77.5868 20.2921 76.6482 21.1318C75.7518 21.9339 74.2211 22.4161 72.5962 22.394C70.9711 22.3718 69.4982 21.8498 68.6572 20.9432C67.6655 19.8741 67.0763 18.0385 67.0662 16.1303C67.056 14.2077 67.6321 12.5251 68.592 11.6663C69.5063 10.8482 71.0574 10.3119 72.6804 10.2765C74.3084 10.2409 75.7587 10.7112 76.583 11.5999Z" stroke="white" stroke-width="2"/>
<path d="M83.8613 9.4939V13.5229M83.8613 22.5882V13.5229M83.8613 13.5229C85.7073 11.1727 90.589 7.88229 93.7068 13.5229" stroke="white" stroke-width="2"/>
<path d="M98.1527 15.2828C98.3392 15.2828 106.034 15.2828 109.998 15.2828C109.998 9.02854 98.8495 8.22154 98.1527 15.2828ZM98.1527 15.2828C97.2966 23.9582 107.443 22.5459 109.998 20.1249" stroke="white" stroke-width="2"/>
<rect width="6.83397" height="1.55317" rx="0.776587" transform="matrix(0.713448 -0.700708 0.713448 0.700708 13.6289 21.1843)" fill="#00D19C"/>
<rect width="6.83397" height="1.55317" rx="0.776587" transform="matrix(0.713448 0.700708 -0.713448 0.700708 14.7363 12.7019)" fill="#00D19C"/>
<rect width="6.83397" height="1.55317" rx="0.776587" transform="matrix(-0.713448 0.700708 -0.713448 -0.700708 14.5977 11.0195)" fill="#00D19C"/>
<rect width="6.83397" height="1.55317" rx="0.776587" transform="matrix(-0.713448 -0.700708 0.713448 -0.700708 13.4863 19.5022)" fill="#00D19C"/>
<rect y="1.40142" width="18.1247" height="18.1247" rx="2" transform="matrix(0.713448 0.700708 -0.713448 0.700708 15.3573 2.29272)" stroke="#00D19C" stroke-width="2"/>
</svg>
