<svg width="86" height="95" viewBox="0 0 86 95" fill="none" xmlns="http://www.w3.org/2000/svg">
<path d="M18.2394 0H59.9095L72.7795 11.61L85.6495 10.77L81.0995 94.66L10.6895 88.04L18.2394 0Z" fill="#7ACBB8"/>
<path d="M59.9102 0L69.5501 15.57C69.8401 16.04 70.4301 16.25 70.9501 16.06L85.6501 10.78L59.9102 0Z" fill="#A0ECDA"/>
<path d="M3.36005 28.2799L27.84 25.3599L25.8 53.4799L0 57.5599L3.36005 28.2799Z" fill="#A0ECDA"/>
<path d="M9.08008 36.0776L20.2071 45.9361" stroke="black" stroke-miterlimit="10"/>
<path d="M20.5802 34.0003L7.07989 49.5004" stroke="black" stroke-miterlimit="10"/>
<path d="M32.3691 19.2197L35.0491 22.6998L71.7292 23.8198L66.6292 20.2098L32.3691 19.2197Z" fill="#A0ECDA"/>
<path d="M63.8304 32.4399H32.1504V36.7599H63.8304V32.4399Z" fill="#A0ECDA"/>
<path d="M36.8 46L35 50.2H71.68V46H36.8Z" fill="#A0ECDA"/>
<path d="M32.0195 58.1802V62.3802H71.7395L74.2595 58.1802H32.0195Z" fill="#A0ECDA"/>
<path d="M31.3465 72.6711L32.9101 76.211L62.3174 78.5328L66.3433 74.6066L31.3465 72.6711Z" fill="#A0ECDA"/>
</svg>
