<svg width="187" height="122" viewBox="0 0 187 122" fill="none" xmlns="http://www.w3.org/2000/svg">
<g clip-path="url(#clip0_1745_2508)">
<path d="M4.96 19.01L0 122.06L186.96 117.15L179.24 19H4.96V19.01Z" fill="#F79C8B"/>
<path d="M43 90C58.464 90 71 78.3594 71 64C71 49.6406 58.464 38 43 38C27.536 38 15 49.6406 15 64C15 78.3594 27.536 90 43 90Z" fill="#D6715E"/>
<path fill-rule="evenodd" clip-rule="evenodd" d="M70.1457 70.3977C67.0759 81.6636 56.0862 90 42.9997 90C34.994 90 27.773 86.8802 22.6699 81.8784C28.9474 78.5379 33.2684 72.2571 33.2684 62.2549C33.2684 50.0424 50.2467 44.3285 55.4722 57.6579C60.5623 70.6418 61.9293 70.9696 70.1457 70.3977Z" fill="#FFCDBC"/>
<path opacity="0.5" d="M82.2207 38.0898L84.6807 46.8898L164.671 42.4898V38.0898H82.2207Z" fill="#B64630"/>
<path opacity="0.5" d="M164.67 60.9602V48.2202L85.5996 54.5902L88.0696 60.9602H164.67Z" fill="#B64630"/>
<path opacity="0.5" d="M114.27 66.2402L116.69 75.0902H162.18V66.2402H114.27Z" fill="#B64630"/>
<path opacity="0.5" d="M69.13 101L68.79 107.83H20L23.4 102.09L69.13 101Z" fill="#B64630"/>
<path opacity="0.5" d="M87.5206 94.4502L84.1406 108.23H175.741L172.741 96.7502L87.5206 94.4502Z" fill="#B64630"/>
<path d="M82.2207 0V25.44H95.5507L99.3907 0H82.2207Z" fill="#FFCDBC"/>
</g>
<defs>
<clipPath id="clip0_1745_2508">
<rect width="186.96" height="121.99" fill="white"/>
</clipPath>
</defs>
</svg>
